# xmcd CD database file
#
# Track frame offsets:
#	150
#	22305
#	35615
#	52850
#	75565
#	89045
#	107272
#	124212
#	148392
#	152987
#	180020
#	192325
#	219707
#	235167
#	256652
#	278772
#
# Disc length: 4040 seconds
#
# Revision: 4
# Processed by: cddbd v1.5.2PL0 Copyright (c) Steve Scherf et al.
# Submitted via: CDex 1.51
#
DISCID=dd0fc610
DTITLE=Various Artist - Precious
DYEAR=1999
DGENRE=New Age
TTITLE0=Irish Mist
TTITLE1=Rites of Passage
TTITLE2=Shadows
TTITLE3=Cause We've Ended As Lovers
TTITLE4=Quiet Afternoon
TTITLE5=Panoramic
TTITLE6=Floating Spirit
TTITLE7=5'22
TTITLE8=0'55
TTITLE9=Events
TTITLE10=Breisleach
TTITLE11=Free Flying
TTITLE12=Memories of Morocco
TTITLE13=The Rainbow for Isa
TTITLE14=Wakan-Tanka People Lowlands
TTITLE15=Hope
EXTD=YEAR: 1999
EXTT0=
EXTT1=
EXTT2=
EXTT3=
EXTT4=
EXTT5=
EXTT6=
EXTT7=
EXTT8=
EXTT9=
EXTT10=
EXTT11=
EXTT12=
EXTT13=
EXTT14=
EXTT15=
PLAYORDER=
